<?xml version="1.0" encoding="utf-8"?>
<!-- Generator: Adobe Illustrator 24.0.0, SVG Export Plug-In . SVG Version: 6.00 Build 0)  -->
<svg version="1.1" id="Layer_1" xmlns="http://www.w3.org/2000/svg" xmlns:xlink="http://www.w3.org/1999/xlink" x="0px" y="0px"
	 viewBox="0 0 256 256" enable-background="new 0 0 256 256" xml:space="preserve">
<g>
</g>
<g>
	<path fill="#FFB69F" d="M247.556,139.831l-0.323,41.292c0,2.68-1.067,5.244-2.967,7.145l-46.861,46.87
		c-1.681,1.681-2.625,3.961-2.625,6.339v4.284h-45.165v-27.952h0.018c-0.323-9.512,3.299-18.772,10.068-25.541
		c21.459-21.438,16.396-16.378,24.671-24.653c3.308-3.308,8.723-3.29,12.004,0.135c3.22,3.362,2.93,8.662-0.26,11.852
		l-11.672,11.663c-3.631,3.649-3.604,9.574,0.117,13.169c3.586,3.478,9.628,3.21,13.161-0.323l28.759-28.768
		c1.488-1.488,2.322-3.487,2.322-5.585l0.323-29.925c0-5.101,4.133-9.225,9.225-9.225
		C243.432,130.606,247.556,134.73,247.556,139.831z"/>
	<path fill="#FFB69F" d="M106.386,217.808v27.952H61.221v-4.284c0-2.377-0.944-4.657-2.625-6.339l-46.861-46.87
		c-1.901-1.901-2.967-4.465-2.967-7.145l-0.323-41.292c0-5.101,4.124-9.225,9.207-9.225c5.092,0,9.225,4.124,9.225,9.225
		l0.323,29.925c0,2.098,0.834,4.097,2.322,5.585l28.759,28.768c3.532,3.532,9.575,3.801,13.161,0.323
		c3.72-3.595,3.747-9.521,0.117-13.169l-11.672-11.663c-3.194-3.194-3.475-8.494-0.26-11.852c3.281-3.425,8.696-3.443,12.004-0.135
		l6.401,6.401l18.27,18.252c6.768,6.769,10.39,16.029,10.068,25.541H106.386z"/>
	<path fill="#F0C020" d="M37.181,87.553c-3.961-1.309-8.051-2.453-10.348-12.345c-2.115,9.112-5.504,10.745-10.348,12.345
		c7.9,2.61,9.092,6.933,10.348,12.345C28.998,90.569,32.579,89.074,37.181,87.553z"/>
	<path d="M24.242,100.5c-1.147-4.945-1.905-8.212-8.591-10.421c-2.43-0.803-2.424-4.25,0-5.051c4.025-1.33,6.684-2.209,8.591-10.422
		c0.633-2.73,4.546-2.737,5.181,0c1.95,8.399,4.863,9.193,8.591,10.421c2.43,0.803,2.424,4.25,0,5.051
		c-3.881,1.282-6.686,2.209-8.591,10.421C28.787,103.242,24.879,103.243,24.242,100.5z M22.722,87.614
		c1.914,1.314,3.222,2.815,4.164,4.403c1.141-2.017,2.462-3.405,3.934-4.439c-1.411-1.01-2.778-2.44-3.977-4.601
		C25.657,85.111,24.271,86.552,22.722,87.614z"/>
	<path fill="#F0C020" d="M239.514,87.553c-3.961-1.309-8.051-2.453-10.348-12.345c-2.115,9.112-5.504,10.745-10.348,12.345
		c7.9,2.61,9.092,6.933,10.348,12.345C231.331,90.569,234.912,89.074,239.514,87.553z"/>
	<path d="M226.576,100.5c-1.147-4.945-1.905-8.212-8.591-10.421c-2.43-0.803-2.424-4.25,0-5.051
		c4.025-1.33,6.684-2.209,8.591-10.422c0.633-2.73,4.546-2.737,5.181,0c1.95,8.399,4.863,9.193,8.591,10.421
		c2.43,0.803,2.424,4.25,0,5.051c-3.881,1.282-6.686,2.209-8.591,10.421C231.121,103.242,227.213,103.243,226.576,100.5z
		 M225.056,87.614c1.914,1.314,3.222,2.815,4.164,4.403c1.141-2.017,2.462-3.405,3.934-4.439c-1.411-1.01-2.778-2.44-3.977-4.601
		C227.99,85.111,226.604,86.552,225.056,87.614z"/>
	<path fill="#72C2E9" d="M204.837,87.076c0,11.285-2.433,22.01-6.812,31.672c-17.245,38.061-61.343,54.973-99.175,39.429
		c-5.119-2.103-9.962-4.741-14.45-7.851c-20.695-14.285-33.98-38.374-33.208-64.99c0.079-3.402,0.37-6.757,0.874-10.04
		c2.992-19.482,13.301-36.57,28.074-48.335c25.504-20.326,60.521-21.986,87.52-5.709C189.891,34.685,204.837,59.081,204.837,87.076z
		"/>
	<path fill="#13BF6D" d="M128.401,125.55L98.85,158.177c-5.119-2.103-9.962-4.741-14.45-7.851l2.394-34.148
		c0.329-4.691-1.455-9.283-4.865-12.522L52.066,75.295c2.992-19.482,13.301-36.57,28.074-48.335l29.126,11.809
		c8.24,3.341,12.082,12.836,8.485,20.967L110.5,76.128c-3.087,6.978-0.728,15.165,5.599,19.43l9.434,6.36
		C133.484,107.279,134.839,118.442,128.401,125.55z"/>
	<path fill="#13BF6D" d="M204.84,87.076c0,11.286-2.437,22.01-6.816,31.669c-6.948-2.57-11.088-9.857-9.592-17.243l1.991-9.898
		c1.743-8.626-4.189-16.921-12.905-18.077l-10.253-1.347c-9.906-1.305-15.88-11.658-12.046-20.887l12.443-30.041
		C189.894,34.686,204.84,59.084,204.84,87.076z"/>
	<path fill="#FBE0E2" d="M186.839,244.885c-1.381,0-2.5-1.119-2.5-2.5v-7.907c0-0.663,0.263-1.299,0.732-1.768l51.725-51.726
		l0.222-28.176c0.011-1.374,1.128-2.48,2.5-2.48c0.007,0,0.013,0,0.02,0c1.381,0.011,2.491,1.139,2.48,2.52l-0.222,28.23
		c0,1.265-0.489,2.463-1.377,3.355l-51.079,51.079v6.872C189.339,243.766,188.22,244.885,186.839,244.885z M239.597,145.328
		c-0.007,0-0.013,0-0.02,0c-1.381-0.011-2.491-1.139-2.48-2.52l0.023-3c0.011-1.374,1.128-2.48,2.5-2.48c0.007,0,0.013,0,0.02,0
		c1.381,0.011,2.491,1.139,2.48,2.52l-0.023,3C242.086,144.222,240.969,145.328,239.597,145.328z"/>
	<path fill="#FBE0E2" d="M98.451,244.885c-1.38,0-2.499-1.118-2.5-2.498l-0.002-3c-0.001-1.381,1.117-2.501,2.498-2.502
		c0,0,0.001,0,0.002,0c1.38,0,2.499,1.118,2.5,2.498l0.002,3c0.001,1.381-1.117,2.501-2.498,2.502
		C98.452,244.885,98.451,244.885,98.451,244.885z M98.441,231.885c-1.38,0-2.499-1.118-2.5-2.498l-0.009-11.85
		c0.212-7.051-2.542-13.417-7.011-17.886l-24.673-24.658c-0.977-0.977-0.977-2.56-0.001-3.536c0.976-0.976,2.56-0.975,3.535-0.001
		l24.674,24.659c5.536,5.535,8.755,13.389,8.475,21.506l0.01,11.762c0.001,1.381-1.118,2.501-2.498,2.502
		C98.442,231.885,98.441,231.885,98.441,231.885z"/>
	<path fill="#73FEBB" d="M61.123,86.5c-1.379-0.064-2.445-1.235-2.38-2.614c0.87-18.507,8.861-35.561,22.501-48.019
		c1.02-0.932,2.6-0.858,3.532,0.16c0.931,1.019,0.86,2.601-0.16,3.531C71.96,51.119,64.545,66.944,63.737,84.12
		C63.672,85.507,62.492,86.568,61.123,86.5z"/>
	<path fill="#C5E5FE" d="M127.92,156.423c-7.765,0-15.4-1.292-22.694-3.839c-1.304-0.455-1.991-1.881-1.536-3.185
		c0.456-1.305,1.879-1.989,3.185-1.536c6.763,2.362,13.843,3.56,21.046,3.56c17.248-0.001,34.074-7.099,46.165-19.474
		c0.965-0.987,2.548-1.007,3.535-0.041c0.988,0.965,1.006,2.548,0.041,3.535C164.636,148.775,146.506,156.422,127.92,156.423z
		 M180.841,128.077c-1.121-0.807-1.375-2.369-0.568-3.49c0.559-0.775,1.109-1.577,1.636-2.383c0.756-1.153,2.304-1.479,3.46-0.723
		c1.155,0.756,1.479,2.305,0.723,3.461c-0.567,0.866-1.16,1.73-1.762,2.566C183.526,128.626,181.965,128.884,180.841,128.077z"/>
	<path fill="#C5E5FE" d="M83.632,140.356c-7.059-5.869-12.765-12.851-16.958-20.752c-0.647-1.22-0.183-2.733,1.037-3.38
		c1.219-0.647,2.732-0.186,3.38,1.036c3.886,7.323,9.181,13.8,15.737,19.25c1.062,0.883,1.207,2.459,0.324,3.521
		C86.271,141.093,84.694,141.239,83.632,140.356z M62.534,110.097c-2.954-8.521-4.122-17.401-3.792-26.187
		c0.051-1.38,1.225-2.45,2.591-2.405c1.38,0.051,2.457,1.211,2.405,2.591c-0.308,8.352,0.818,16.569,3.52,24.362
		c0.453,1.305-0.238,2.729-1.543,3.182C64.405,112.093,62.985,111.397,62.534,110.097z"/>
	<path fill="#73FEBB" d="M105.227,152.584c-7.873-2.744-15.138-6.858-21.596-12.229c-1.062-0.883-1.207-2.459-0.324-3.521
		c0.883-1.062,2.46-1.206,3.521-0.323c5.995,4.985,12.739,8.805,20.044,11.352c1.304,0.454,1.992,1.88,1.538,3.184
		C107.953,152.358,106.519,153.038,105.227,152.584z"/>
	<path d="M166.26,189.24c0.989-0.97,0.982-2.559,0.01-3.53c-0.95-0.95-2.6-0.95-3.54-0.01c-5.065,5.062-15.62,13.845-15.62,30.939
		c0,0,0.01,24.194,0.01,29.12c0,1.38,1.12,2.5,2.5,2.5c1.37,0,2.5-1.12,2.5-2.5c0-36.336-0.01-27.719-0.01-29.12
		C152.11,201.928,160.836,194.662,166.26,189.24z"/>
	<path d="M169.79,178.649c-0.97,0.971-0.97,2.561,0,3.54c0.932,0.934,2.504,1.015,3.54,0c0.97-0.979,0.97-2.56,0-3.54
		C172.38,177.71,170.74,177.71,169.79,178.649z"/>
	<path d="M249.73,181.12l0.33-41.271c0-6.47-5.25-11.74-11.71-11.74c-6.45,0-11.71,5.25-11.72,11.69l-0.33,29.93v0.03
		c0,1.43-0.57,2.79-1.59,3.81l-28.76,28.771c-2.551,2.57-7.052,2.809-9.65,0.3c-2.747-2.685-2.707-6.973-0.09-9.61l11.67-11.659
		c4.193-4.213,4.432-11.046,0.3-15.351c-4.117-4.318-11.142-4.606-15.58-0.17c-3.09,3.09-4.32,4.32-5.76,5.76
		c-0.955,0.936-1.022,2.519,0,3.54c0.94,0.94,2.57,0.94,3.52,0.011l0.01-0.011c1.45-1.449,2.68-2.68,5.77-5.77
		c2.336-2.336,6.132-2.301,8.43,0.1c2.313,2.425,1.96,6.17-0.22,8.351l-11.67,11.66c-4.717,4.737-4.495,12.247,0.14,16.739
		c4.596,4.444,12.17,4.109,16.67-0.35l28.76-28.771c1.96-1.96,3.04-4.56,3.05-7.319c0,0,0,0,0-0.011l0.32-29.92v-0.029
		c0.01-3.7,3.03-6.721,6.73-6.721c3.69,0,6.7,3.021,6.71,6.721l-0.33,41.27c0,2.04-0.79,3.96-2.23,5.4l-46.86,46.87
		c-2.14,2.13-3.36,5.09-3.36,8.109v4.28c0,1.38,1.12,2.5,2.5,2.5s2.5-1.12,2.5-2.5v-4.28c0-1.729,0.67-3.35,1.89-4.58l46.86-46.859
		C248.42,187.649,249.73,184.479,249.73,181.12z"/>
	<path d="M60.048,202.342l-28.76-28.769c-1.025-1.025-1.59-2.381-1.59-3.845l-0.323-29.897c0-6.465-5.26-11.725-11.725-11.725
		c-6.455,0-11.707,5.26-11.707,11.744l0.323,41.272c0,3.362,1.314,6.527,3.699,8.913l46.861,46.869
		c1.221,1.222,1.894,2.845,1.894,4.571v4.283c0,1.381,1.119,2.5,2.5,2.5s2.5-1.119,2.5-2.5v-4.283c0-3.062-1.192-5.94-3.357-8.106
		l-46.861-46.869c-1.441-1.441-2.235-3.352-2.235-5.397l-0.323-41.272c0-3.708,3.009-6.725,6.707-6.725
		c3.708,0,6.725,3.017,6.725,6.752l0.323,29.897c0,2.771,1.084,5.383,3.054,7.353l28.76,28.769
		c4.545,4.545,12.177,4.705,16.665,0.353c4.676-4.518,4.823-12.035,0.146-16.735l-11.672-11.662
		c-2.316-2.316-2.416-6.064-0.222-8.354c2.344-2.446,6.151-2.377,8.431-0.097l24.672,24.653
		c10.482,10.483,9.231,23.066,9.353,24.066v27.659c0,1.381,1.119,2.5,2.5,2.5s2.5-1.119,2.5-2.5v-27.952
		c0-11.337-3.919-20.411-10.818-27.31l-24.671-24.652c-4.259-4.26-11.287-4.305-15.577,0.173c-4.06,4.239-3.926,11.125,0.298,15.35
		l11.667,11.658c2.655,2.668,2.633,6.984-0.085,9.61C67.169,205.091,62.659,204.953,60.048,202.342z"/>
	<path d="M128.32,10.2c-0.04-1.391-1.17-2.48-2.57-2.431c-41.829,1.144-76.09,34.877-77.06,77.51
		c-1.266,44.27,34.906,81.141,79.23,81.141h0.01c43.867,0,79.41-35.468,79.41-79.34c0-36.972-25.484-68.835-61.1-77.221
		c-1.33-0.319-2.7,0.54-3.01,1.86c-0.297,1.286,0.448,2.662,1.86,3.01c6.822,1.606,13.343,4.16,19.423,7.589l-11.604,28.015
		c-4.463,10.743,2.477,22.803,14.029,24.324l10.25,1.347c7.297,0.968,12.241,7.891,10.784,15.105l-1.991,9.896
		c-1.558,7.694,2.05,15.253,8.711,18.938c-12.482,25.27-38.417,41.477-66.772,41.477c-8.475,0-16.788-1.438-24.766-4.27
		l27.106-29.921c7.457-8.239,5.88-21.197-3.33-27.38l-9.43-6.37c-1.54-1.04-2.83-2.359-3.81-3.92c-0.71-1.13-2.31-1.5-3.45-0.79
		c-1.223,0.787-1.484,2.336-0.78,3.45c1.36,2.16,3.12,3.98,5.24,5.41l9.44,6.36c6.547,4.429,7.929,13.769,2.41,19.88l-28.341,31.295
		c-3.904-1.716-7.665-3.769-11.213-6.127l2.292-32.685c0.382-5.455-1.672-10.743-5.637-14.509L54.764,74.409
		c2.988-17.477,12.107-33.2,25.822-44.568L108.33,41.09c7.051,2.852,10.125,10.899,7.13,17.64l-5.39,12.19
		c-0.56,1.26,0.02,2.74,1.28,3.3c1.265,0.551,2.726-0.02,3.3-1.28l5.39-12.189c4.156-9.487-0.289-20.414-9.84-24.3l-25.01-10.144
		c11.955-8.456,25.939-13.127,40.7-13.537C127.26,12.729,128.362,11.6,128.32,10.2z M190.882,101.995l1.991-9.896
		c2.029-10.042-4.896-19.707-15.031-21.051c-4.26-0.56-7.783-0.809-10.719-1.452c-9.174-2.008-12.395-10.607-9.596-17.346
		l11.307-27.298c21.031,13.832,33.506,36.833,33.506,62.128c0,9.819-1.9,19.318-5.598,28.287
		C192.21,112.652,189.795,107.368,190.882,101.995z M80.208,105.47c2.878,2.734,4.371,6.573,4.093,10.534l-2.077,29.622
		c-18.871-14.742-30.566-38.346-28.267-65.087L80.208,105.47z"/>
	<path d="M138.3,10.89c0.124-1.365-0.836-2.593-2.24-2.74c-1.36-0.14-2.6,0.87-2.74,2.23c-0.155,1.49,1.024,2.76,2.49,2.76
		C137.1,13.14,138.17,12.17,138.3,10.89z"/>
	<path d="M109.37,78.859c-1.36-0.13-2.56,0.94-2.67,2.29c0,0,0,0.011,0,0.021c-0.104,1.383,0.938,2.568,2.31,2.67
		c1.038,0.169,2.558-0.722,2.68-2.311C111.79,80.16,110.75,78.96,109.37,78.859z"/>
</g>
</svg>
